<svg width="20" height="20" viewBox="0 0 20 20" fill="none" xmlns="http://www.w3.org/2000/svg">
<path d="M10.04 -7.14002e-06C4.57999 -7.14002e-06 0.129988 4.44999 0.129988 9.90999C0.129988 11.66 0.589988 13.36 1.44999 14.86L0.0499878 20L5.29999 18.62C6.74999 19.41 8.37999 19.83 10.04 19.83C15.5 19.83 19.95 15.38 19.95 9.91999C19.95 7.26999 18.92 4.77999 17.05 2.90999C16.1331 1.9841 15.041 1.24996 13.8375 0.750355C12.634 0.250751 11.3431 -0.0043242 10.04 -7.14002e-06ZM10.05 1.66999C12.25 1.66999 14.31 2.52999 15.87 4.08999C16.6354 4.85551 17.2422 5.7645 17.6558 6.76491C18.0693 7.76532 18.2814 8.83748 18.28 9.91999C18.28 14.46 14.58 18.15 10.04 18.15C8.55999 18.15 7.10999 17.76 5.84999 17L5.54999 16.83L2.42999 17.65L3.25999 14.61L3.05999 14.29C2.23453 12.9784 1.79766 11.4597 1.79999 9.90999C1.80999 5.36999 5.49999 1.66999 10.05 1.66999ZM6.52999 5.32999C6.36999 5.32999 6.09999 5.38999 5.86999 5.63999C5.64999 5.88999 4.99999 6.49999 4.99999 7.70999C4.99999 8.92999 5.88999 10.1 5.99999 10.27C6.13999 10.44 7.75999 12.94 10.25 14C10.84 14.27 11.3 14.42 11.66 14.53C12.25 14.72 12.79 14.69 13.22 14.63C13.7 14.56 14.68 14.03 14.89 13.45C15.1 12.87 15.1 12.38 15.04 12.27C14.97 12.17 14.81 12.11 14.56 12C14.31 11.86 13.09 11.26 12.87 11.18C12.64 11.1 12.5 11.06 12.31 11.3C12.15 11.55 11.67 12.11 11.53 12.27C11.38 12.44 11.24 12.46 11 12.34C10.74 12.21 9.93999 11.95 8.99999 11.11C8.25999 10.45 7.76999 9.63999 7.61999 9.38999C7.49999 9.14999 7.60999 8.99999 7.72999 8.88999C7.83999 8.77999 7.99999 8.59999 8.09999 8.44999C8.22999 8.30999 8.26999 8.19999 8.34999 8.03999C8.42999 7.86999 8.38999 7.72999 8.32999 7.60999C8.26999 7.49999 7.76999 6.25999 7.55999 5.76999C7.35999 5.28999 7.15999 5.34999 6.99999 5.33999C6.85999 5.33999 6.69999 5.32999 6.52999 5.32999Z" fill="white"/>
</svg>
